<?xml version="1.0" encoding="UTF-8"?>
<svg xmlns="http://www.w3.org/2000/svg" xmlns:xlink="http://www.w3.org/1999/xlink" width="24px" height="24px" viewBox="0 0 24 24" version="1.1">
<g id="surface1">
<path style=" stroke:none;fill-rule:nonzero;fill:rgb(0%,0%,0%);fill-opacity:1;" d="M 7.941406 11.195312 C 8.070312 11.648438 8.484375 12.800781 9.5 13.507812 L 9.484375 14.304688 C 8.519531 14.625 5.773438 15.5625 4.609375 16.199219 C 4.503906 16.257812 4.425781 16.351562 4.382812 16.460938 C 4.34375 16.566406 3.421875 19.023438 3.824219 20.867188 C 3.875 21.097656 4.078125 21.261719 4.3125 21.261719 L 19.675781 21.261719 C 19.910156 21.261719 20.113281 21.097656 20.164062 20.867188 C 20.566406 19.03125 19.714844 16.578125 19.679688 16.472656 C 19.636719 16.359375 19.554688 16.261719 19.445312 16.203125 C 18.292969 15.570312 15.710938 14.625 14.78125 14.292969 L 14.78125 13.492188 C 15.492188 12.785156 15.980469 11.632812 16.136719 11.230469 C 16.484375 10.949219 17.394531 10.101562 17.394531 8.945312 C 17.394531 8.136719 17.042969 7.734375 16.628906 7.59375 C 16.710938 6.6875 16.714844 4.882812 15.667969 3.605469 C 14.917969 2.691406 13.792969 2.230469 12.324219 2.230469 L 11.707031 2.230469 C 10.242188 2.230469 9.117188 2.691406 8.371094 3.605469 C 7.328125 4.875 7.332031 6.667969 7.417969 7.582031 C 7.015625 7.71875 6.671875 8.113281 6.671875 8.910156 C 6.671875 10.042969 7.570312 10.890625 7.941406 11.195312 Z M 15.917969 15.777344 C 16.90625 16.152344 18.078125 16.621094 18.792969 16.988281 C 18.953125 17.503906 19.378906 19.015625 19.25 20.261719 L 4.742188 20.261719 C 4.621094 19.011719 5.085938 17.496094 5.257812 16.988281 C 5.871094 16.679688 6.847656 16.296875 7.769531 15.960938 C 8.1875 16.398438 9.605469 17.710938 11.578125 17.792969 C 11.640625 17.796875 11.707031 17.796875 11.769531 17.796875 C 13.191406 17.796875 14.5625 17.144531 15.855469 15.855469 C 15.878906 15.832031 15.898438 15.804688 15.917969 15.777344 Z M 7.742188 8.527344 C 7.746094 8.527344 7.75 8.527344 7.761719 8.527344 C 7.785156 8.527344 7.804688 8.53125 7.816406 8.535156 C 7.984375 8.605469 8.167969 8.574219 8.3125 8.460938 C 8.457031 8.34375 8.515625 8.148438 8.476562 7.964844 C 8.472656 7.941406 8.019531 5.613281 9.144531 4.238281 C 9.691406 3.570312 10.554688 3.230469 11.707031 3.230469 L 12.324219 3.230469 C 13.476562 3.230469 14.339844 3.570312 14.890625 4.234375 C 16.015625 5.601562 15.574219 7.945312 15.570312 7.96875 C 15.535156 8.144531 15.589844 8.335938 15.726562 8.453125 C 15.867188 8.566406 16.042969 8.605469 16.210938 8.542969 C 16.222656 8.539062 16.242188 8.535156 16.265625 8.535156 C 16.273438 8.535156 16.304688 8.539062 16.3125 8.546875 C 16.34375 8.578125 16.394531 8.695312 16.394531 8.945312 C 16.394531 9.820312 15.441406 10.507812 15.433594 10.511719 C 15.347656 10.570312 15.28125 10.65625 15.246094 10.753906 C 15.097656 11.171875 14.578125 12.371094 13.960938 12.890625 C 13.847656 12.988281 13.785156 13.125 13.785156 13.273438 L 13.785156 14.648438 C 13.785156 14.859375 13.917969 15.050781 14.117188 15.121094 C 14.128906 15.125 14.429688 15.230469 14.886719 15.394531 C 13.828125 16.367188 12.734375 16.835938 11.628906 16.792969 C 10.375 16.746094 9.363281 16.046875 8.828125 15.585938 C 9.570312 15.324219 10.117188 15.148438 10.132812 15.144531 C 10.335938 15.078125 10.472656 14.890625 10.476562 14.675781 L 10.503906 13.242188 C 10.507812 13.058594 10.410156 12.886719 10.25 12.796875 C 9.183594 12.199219 8.875 10.8125 8.871094 10.800781 C 8.84375 10.675781 8.773438 10.566406 8.667969 10.492188 C 8.660156 10.488281 7.675781 9.785156 7.675781 8.910156 C 7.671875 8.640625 7.730469 8.546875 7.742188 8.527344 Z M 7.742188 8.527344 "/>
<path style=" stroke:none;fill-rule:nonzero;fill:rgb(0%,0%,0%);fill-opacity:1;" d="M 2 3.5 C 2.277344 3.5 2.5 3.277344 2.5 3 L 2.5 1 L 4.5 1 C 4.777344 1 5 0.777344 5 0.5 C 5 0.222656 4.777344 0 4.5 0 L 2 0 C 1.722656 0 1.5 0.222656 1.5 0.5 L 1.5 3 C 1.5 3.277344 1.722656 3.5 2 3.5 Z M 2 3.5 "/>
<path style=" stroke:none;fill-rule:nonzero;fill:rgb(0%,0%,0%);fill-opacity:1;" d="M 22 0 L 19.5 0 C 19.222656 0 19 0.222656 19 0.5 C 19 0.777344 19.222656 1 19.5 1 L 21.5 1 L 21.5 3 C 21.5 3.277344 21.722656 3.5 22 3.5 C 22.277344 3.5 22.5 3.277344 22.5 3 L 22.5 0.5 C 22.5 0.222656 22.277344 0 22 0 Z M 22 0 "/>
<path style=" stroke:none;fill-rule:nonzero;fill:rgb(0%,0%,0%);fill-opacity:1;" d="M 4.5 23 L 2.5 23 L 2.5 21 C 2.5 20.722656 2.277344 20.5 2 20.5 C 1.722656 20.5 1.5 20.722656 1.5 21 L 1.5 23.5 C 1.5 23.777344 1.722656 24 2 24 L 4.5 24 C 4.777344 24 5 23.777344 5 23.5 C 5 23.222656 4.777344 23 4.5 23 Z M 4.5 23 "/>
<path style=" stroke:none;fill-rule:nonzero;fill:rgb(0%,0%,0%);fill-opacity:1;" d="M 22 20.5 C 21.722656 20.5 21.5 20.722656 21.5 21 L 21.5 23 L 19.5 23 C 19.222656 23 19 23.222656 19 23.5 C 19 23.777344 19.222656 24 19.5 24 L 22 24 C 22.277344 24 22.5 23.777344 22.5 23.5 L 22.5 21 C 22.5 20.722656 22.277344 20.5 22 20.5 Z M 22 20.5 "/>
</g>
</svg>
